<svg width="238" height="51" viewBox="0 0 238 51" fill="none" xmlns="http://www.w3.org/2000/svg">
<path d="M32.5771 18.5864C26.6046 7.28755 15.2739 -0.991034 7.26948 0.0961784C-0.734827 1.18348 -2.38164 11.2242 3.59076 22.5229C9.56325 33.8218 20.894 42.1004 28.8984 41.0132C36.9023 39.9256 38.5493 29.8849 32.5771 18.5864ZM14.0654 10.4136C19.659 9.87153 27.3227 15.9302 31.1767 23.9487C35.0306 31.9633 33.6168 38.9073 28.0234 39.4497C22.4296 39.9917 14.765 33.9333 10.9111 25.9145C7.05716 17.8999 8.46792 10.9556 14.0654 10.4136Z" fill="white"/>
<path d="M22.2193 18.586C16.2468 29.8849 17.894 39.9258 25.8985 41.013C33.9029 42.1002 45.2334 33.822 51.2059 22.5232C57.1784 11.2243 55.5312 1.1834 47.5267 0.0961825C39.5223 -0.99103 28.1918 7.28715 22.2193 18.586Z" fill="white"/>
<path d="M106.163 20.7742C106.163 25.1493 108.533 28.1268 112.787 28.1268C116.676 28.1267 119.593 24.9061 119.593 20.5916V5.82501H128.344V33.2313C128.344 43.7442 121.599 50.611 111.693 50.6111C104.523 50.6111 99.2961 47.573 96.5615 41.9822L103.672 38.0926C105.009 40.7056 107.682 42.7117 111.571 42.7117C116.737 42.7117 119.715 38.9439 119.715 33.3533V32.5018C118.074 34.9325 115.4 36.2703 111.693 36.2703C101.91 36.2703 97.6554 30.0108 97.6553 21.0779V5.82501H106.163V20.7742ZM148.79 4.9129C158.209 4.91291 165.136 11.7189 165.137 20.7733V35.9051H156.933V32.3807C154.806 35.0543 151.525 36.6951 147.393 36.6951C138.642 36.6951 132.504 29.524 132.504 20.7733C132.504 12.1442 139.553 4.9129 148.79 4.9129ZM89.0508 5.034C90.9954 5.03401 93.1224 5.39875 94.6416 6.0672V14.4539C93.1832 13.6032 91.4208 13.1776 89.8408 13.1776C86.4377 13.1776 84.3711 15.3656 84.3711 18.951V35.9051H75.7422V18.6463C75.7423 10.9288 80.1178 5.034 89.0508 5.034ZM185.608 4.97443C196.121 4.97455 201.408 12.0839 201.408 20.8953V35.9051H192.779V21.9285C192.779 17.3102 190.531 13.3603 185.608 13.3602C180.747 13.3602 178.559 17.3101 178.559 21.9285V35.9051H169.93V20.8953C169.93 12.1446 175.095 4.97443 185.608 4.97443ZM221.871 4.97443C232.384 4.97455 237.671 12.0839 237.671 20.8953V35.9051H229.042V21.9285C229.042 17.3102 226.793 13.3603 221.871 13.3602C217.01 13.3602 214.821 17.3101 214.821 21.9285V35.9051H206.192V20.8953C206.192 12.1446 211.358 4.97443 221.871 4.97443ZM148.79 13.0565C144.354 13.0565 141.133 16.5809 141.133 20.8348C141.133 25.0885 144.354 28.6131 148.79 28.6131C153.226 28.6131 156.508 25.0885 156.508 20.8348C156.508 16.5809 153.226 13.0565 148.79 13.0565Z" fill="white"/>
</svg>
