<svg width="72" height="55" viewBox="0 0 72 55" fill="none" xmlns="http://www.w3.org/2000/svg">
<path d="M42.804 24.42C34.9567 9.57455 20.069 -1.30238 9.552 0.126099C-0.964592 1.55487 -3.12907 14.7476 4.71802 29.5929C12.5652 44.4384 27.453 55.3153 37.97 53.8868C48.4867 52.4582 50.6509 39.2653 42.804 24.42ZM18.4827 13.6827C25.8323 12.9708 35.9016 20.9313 40.9651 31.4669C46.0288 41.9975 44.1702 51.1209 36.8206 51.8331C29.4709 52.5452 19.4017 44.5847 14.3381 34.049C9.27441 23.5184 11.1279 14.3947 18.4827 13.6827Z" fill="white"/>
<path d="M29.1968 24.4202C21.3496 39.2657 23.5138 52.4583 34.0308 53.8868C44.5478 55.3153 59.4349 44.4387 67.2821 29.5932C75.1293 14.7477 72.965 1.55502 62.4481 0.126541C51.9311 -1.30194 37.044 9.5747 29.1968 24.4202Z" fill="url(#paint0_linear_2926_9730)"/>
<defs>
<linearGradient id="paint0_linear_2926_9730" x1="53.073" y1="22.0348" x2="41.7678" y2="56.3588" gradientUnits="userSpaceOnUse">
<stop stop-color="#F94150"/>
<stop offset="1" stop-color="#FCCCFF"/>
</linearGradient>
</defs>
</svg>
