<svg width="113" height="24" viewBox="0 0 113 24" fill="none" xmlns="http://www.w3.org/2000/svg">
<path d="M15.4483 8.81493C12.6161 3.45698 7.24315 -0.468489 3.4475 0.0470841C-0.348217 0.562657 -1.1293 5.32402 1.70284 10.6819C4.53497 16.0398 9.90795 19.9654 13.7037 19.4498C17.4993 18.9342 18.2804 14.1728 15.4483 8.81493ZM6.67035 4.93986C9.32288 4.68283 12.9571 7.55578 14.7846 11.3583C16.6122 15.1589 15.9414 18.4518 13.2889 18.7088C10.6363 18.9658 7.00211 16.0927 5.17465 12.2903C3.34705 8.48965 4.01595 5.19682 6.67035 4.93986Z" fill="black"/>
<path d="M10.5368 8.81334C7.70469 14.1713 8.48577 18.9327 12.2815 19.4482C16.0772 19.9638 21.4501 16.0383 24.2822 10.6804C27.1144 5.32243 26.3333 0.56107 22.5376 0.0454965C18.7419 -0.470077 13.369 3.45546 10.5368 8.81334Z" fill="url(#paint0_linear_3349_1509)"/>
<path d="M105.212 6.33607C102.906 6.33607 101.869 8.20918 101.869 10.3992V17.0271H97.7773V9.90937C97.7773 5.75976 100.226 2.35938 105.212 2.35938C110.197 2.35938 112.704 5.73094 112.704 9.90937V17.0271H108.612V10.3992C108.612 8.20918 107.546 6.33607 105.212 6.33607Z" fill="black"/>
<path d="M88.0164 6.33607C85.7116 6.33607 84.6739 8.20918 84.6739 10.3992V17.0271H80.582V9.90937C80.582 5.75976 83.0317 2.35938 88.0164 2.35938C93.0018 2.35938 95.5094 5.73094 95.5094 9.90937V17.0271H91.4168V10.3992C91.4168 8.20918 90.3509 6.33607 88.0164 6.33607Z" fill="black"/>
<path d="M69.894 17.4014C65.7449 17.4014 62.834 14.001 62.834 9.85138C62.834 5.7594 66.1771 2.3302 70.5572 2.3302C75.0235 2.3302 78.3088 5.55767 78.3088 9.85138V17.0267H74.4189V15.3553C73.4102 16.6233 71.8541 17.4014 69.894 17.4014ZM70.5572 13.5687C72.6608 13.5687 74.2169 11.8974 74.2169 9.8802C74.2169 7.86299 72.6608 6.19162 70.5572 6.19162C68.4537 6.19162 66.9259 7.86299 66.9259 9.8802C66.9259 11.8974 68.4537 13.5687 70.5572 13.5687Z" fill="black"/>
<path d="M52.9644 24.0001C49.564 24.0001 47.0858 22.5592 45.7891 19.9081L49.1606 18.0638C49.7946 19.3029 51.0625 20.2539 52.9068 20.2539C55.3563 20.2539 56.7683 18.4672 56.7683 15.8161V15.4127C55.9899 16.5654 54.722 17.1993 52.9644 17.1993C48.3249 17.1993 46.3077 14.2311 46.3077 9.99514V2.76208H50.3421V9.85104C50.3421 11.9258 51.4659 13.3379 53.483 13.3379C55.3273 13.3379 56.7103 11.8105 56.7103 9.76459V2.76208H60.8602V15.7585C60.8602 20.7438 57.6618 24.0001 52.9644 24.0001Z" fill="black"/>
<path d="M40.0099 17.0261H35.918V8.84214C35.918 5.18246 37.9927 2.38721 42.2288 2.38721C43.151 2.38721 44.1596 2.56012 44.88 2.87706V6.85383C44.1884 6.45036 43.3527 6.24863 42.6035 6.24863C40.9897 6.24863 40.0099 7.28605 40.0099 8.98624V17.0261Z" fill="black"/>
<defs>
<linearGradient id="paint0_linear_3349_1509" x1="19.154" y1="7.95242" x2="15.0738" y2="20.3404" gradientUnits="userSpaceOnUse">
<stop stop-color="#F94150"/>
<stop offset="1" stop-color="#FCCCFF"/>
</linearGradient>
</defs>
</svg>
