<svg width="20" height="20" viewBox="0 0 20 20" fill="none" xmlns="http://www.w3.org/2000/svg">
<path d="M18.3327 10.0003C18.3327 5.39795 14.6017 1.66699 9.99934 1.66699C5.39697 1.66699 1.66602 5.39795 1.66602 10.0003C1.66602 14.6026 5.39697 18.3336 9.99934 18.3336C14.6017 18.3336 18.3327 14.6026 18.3327 10.0003Z" stroke="#A3A3A3" stroke-width="1.25"/>
<path d="M10.3352 6.91465L12.7684 6.10355C13.5069 5.85738 13.8762 5.73429 14.0712 5.92921C14.2661 6.12414 14.143 6.4934 13.8967 7.23194L13.0857 9.66518C12.6662 10.9237 12.4564 11.553 12.0052 12.0042C11.5539 12.4555 10.9247 12.6652 9.66615 13.0847L7.23291 13.8958C6.49438 14.1421 6.12511 14.2651 5.93019 14.0702C5.73526 13.8753 5.85835 13.506 6.10453 12.7675L6.91562 10.3342C7.33512 9.07568 7.54487 8.44643 7.99613 7.99516C8.4474 7.5439 9.07665 7.33415 10.3352 6.91465Z" stroke="#A3A3A3" stroke-width="1.25" stroke-linecap="round" stroke-linejoin="round"/>
<path d="M9.99947 10L9.99414 10.0053" stroke="#A3A3A3" stroke-width="1.66667" stroke-linecap="round" stroke-linejoin="round"/>
</svg>
