<svg width="20" height="20" viewBox="0 0 20 20" fill="none" xmlns="http://www.w3.org/2000/svg">
<path fill-rule="evenodd" clip-rule="evenodd" d="M1.04102 10.0003C1.04102 5.05277 5.0518 1.04199 9.99934 1.04199C14.9469 1.04199 18.9577 5.05277 18.9577 10.0003C18.9577 14.9479 14.9469 18.9587 9.99934 18.9587C5.0518 18.9587 1.04102 14.9479 1.04102 10.0003ZM10.3338 6.91529L12.7671 6.10419C13.5056 5.85802 13.8749 5.73493 14.0698 5.92985C14.2648 6.12478 14.1417 6.49404 13.8955 7.23257L13.0843 9.66582C12.6648 10.9243 12.4551 11.5536 12.0038 12.0048C11.5526 12.4561 10.9233 12.6658 9.66485 13.0853L7.23161 13.8964C6.49307 14.1427 6.12381 14.2657 5.92888 14.0708C5.73396 13.8759 5.85705 13.5066 6.10322 12.7681L6.91431 10.3348C7.33381 9.07632 7.54356 8.44707 7.99482 7.99579C8.4461 7.54454 9.07535 7.33479 10.3338 6.91529ZM10.5893 9.41032C10.9138 9.73474 10.9138 10.2607 10.5893 10.5851L10.5841 10.5903C10.2597 10.9147 9.73376 10.9147 9.40935 10.5903C9.08493 10.2659 9.08493 9.73999 9.40935 9.41557L9.4146 9.41032C9.73901 9.0859 10.2649 9.0859 10.5893 9.41032Z" fill="#FF4B57"/>
</svg>
