<svg width="20" height="20" viewBox="0 0 20 20" fill="none" xmlns="http://www.w3.org/2000/svg">
<path d="M2.5 9.99101V12.0831C2.5 14.8329 2.5 16.2078 3.35427 17.0621C4.20854 17.9164 5.58347 17.9164 8.33333 17.9164H11.6667C14.4165 17.9164 15.7914 17.9164 16.6457 17.0621C17.5 16.2078 17.5 14.8329 17.5 12.0831V9.99101C17.5 8.58993 17.5 7.88945 17.2034 7.28305C16.9068 6.67665 16.3539 6.24658 15.248 5.38644L13.5813 4.09014C11.8609 2.75205 11.0007 2.08301 10 2.08301C8.99925 2.08301 8.13908 2.75205 6.41868 4.09014L4.75201 5.38644C3.64611 6.24658 3.09316 6.67665 2.79658 7.28305C2.5 7.88945 2.5 8.58993 2.5 9.99101Z" fill="#FF4B57" stroke="#FF4B57" stroke-width="1.25" stroke-linecap="round" stroke-linejoin="round"/>
<path d="M12.5 16.5V13.75C12.5 12.5715 12.5 11.9822 12.1339 11.6161C11.7678 11.25 11.1785 11.25 10 11.25C8.8215 11.25 8.23223 11.25 7.86612 11.6161C7.5 11.9822 7.5 12.5715 7.5 13.75V16.5" fill="white" stroke="white" stroke-width="1.25" stroke-linecap="round" stroke-linejoin="round"/>
</svg>
