<svg width="20" height="20" viewBox="0 0 20 20" fill="none" xmlns="http://www.w3.org/2000/svg">
<path d="M18.9342 8.16504C17.2529 9.8464 15.0111 11.1151 13.8902 11.1151L12.7692 12.7964L11.0879 15.0382C18.2617 15.0382 19.3079 10.7805 18.9342 8.16504Z" fill="#F94150"/>
<path d="M1 5.50991C4.36272 1.02704 9.59361 2.56079 11.6486 3.12124V4.24244C4.92317 2.5617 2.30772 4.76274 1 5.50991Z" fill="#FF4B57"/>
<path d="M11.1181 3.22228C10.788 4.79701 13.2427 6.71175 14.4435 7.6044L16.3303 6.01423C17.0583 5.37743 17.7675 4.55197 17.8112 3.71997C17.8655 2.68724 16.647 1.82986 15.6515 2.11C15.1369 2.25482 14.8417 2.71609 14.4435 3.22227C13.1896 1.71054 11.4837 1.47872 11.1181 3.22228Z" fill="#F94150"/>
<path d="M1.06119 7.988C0.393475 11.6132 5.35802 16.0213 7.78665 18.0763L11.6026 14.4155C13.1316 12.8931 14.6196 10.9022 14.6018 8.91262C14.5825 6.74411 12.1753 4.90457 10.1217 5.60133C8.83508 6.03786 8.10772 7.24134 7.78665 7.98797C7.22619 5.18596 1.8005 3.97406 1.06119 7.988Z" fill="#FF4B57"/>
</svg>
