<svg width="20" height="20" viewBox="0 0 20 20" fill="none" xmlns="http://www.w3.org/2000/svg">
<path d="M17.5508 9.58301C17.509 10.4346 17.2558 11.3514 16.6348 12.1289C15.8685 13.0881 14.4796 13.9137 12.0283 14.0938L12.9004 12.9316L12.9082 12.9209L12.916 12.9092L13.7812 11.6104C14.3775 11.5311 15.104 11.2223 15.8135 10.8115C16.3851 10.4805 16.9819 10.0594 17.5508 9.58301Z" stroke="#A3A3A3"/>
<path d="M2 6.13138C5 2.13205 8.66667 3.13162 10.5 3.63162V4.63188C4.5 3.13243 3.16667 5.4648 2 6.13138Z" fill="#A3A3A3"/>
<path d="M11.027 4.09044C10.7325 5.49532 12.9224 7.20352 13.9937 7.99988L15.6769 6.58124C16.3264 6.01313 16.9591 5.27671 16.9981 4.53445C17.0465 3.61311 15.9595 2.84822 15.0713 3.09814C14.6122 3.22734 14.3489 3.63885 13.9937 4.09043C12.875 2.74176 11.3531 2.53495 11.027 4.09044Z" stroke="#A3A3A3" stroke-width="1.25"/>
<path d="M2.05459 8.43015C1.4589 11.6643 5.88794 15.5969 8.05461 17.4302L11.459 14.1643C12.8231 12.8061 14.1505 11.03 14.1347 9.25503C14.1174 7.32043 12.0082 5.58527 10.1534 6.13559C9.17296 6.42651 8.61143 7.37091 8.05461 8.43012C6.5 6.13235 2.71415 4.84916 2.05459 8.43015Z" stroke="#A3A3A3" stroke-width="1.25"/>
</svg>
