<svg width="20" height="20" viewBox="0 0 20 20" fill="none" xmlns="http://www.w3.org/2000/svg">
<path d="M11.8082 17.4085C15.294 17.1768 18.0707 14.3607 18.2992 10.8255C18.3438 10.1336 18.3438 9.4171 18.2992 8.72526C18.0707 5.19 15.294 2.37395 11.8082 2.14224C10.6189 2.06319 9.37735 2.06335 8.19051 2.14224C4.70467 2.37395 1.92802 5.19 1.69955 8.72526C1.65484 9.4171 1.65484 10.1336 1.69955 10.8255C1.78276 12.1131 2.35221 13.3052 3.02261 14.3119C3.41186 15.0166 3.15496 15.8962 2.74952 16.6646C2.45719 17.2186 2.31102 17.4956 2.42838 17.6956C2.54575 17.8957 2.8079 17.9021 3.33221 17.9149C4.36907 17.9401 5.06825 17.6461 5.62325 17.2369C5.93801 17.0048 6.09541 16.8887 6.20388 16.8754C6.31235 16.8621 6.52582 16.95 6.95269 17.1258C7.33635 17.2838 7.78181 17.3813 8.19051 17.4085C9.37735 17.4874 10.6189 17.4876 11.8082 17.4085Z" stroke="#A3A3A3" stroke-width="1.25" stroke-linejoin="round"/>
<path d="M9.99558 10H10.0031M13.3252 10H13.3327M6.66602 10H6.67349" stroke="#A3A3A3" stroke-width="1.5" stroke-linecap="round" stroke-linejoin="round"/>
</svg>
