<svg width="20" height="20" viewBox="0 0 20 20" fill="none" xmlns="http://www.w3.org/2000/svg">
<path fill-rule="evenodd" clip-rule="evenodd" d="M10.2831 1C7.92521 1 6.01372 2.91149 6.01372 5.26943C6.01372 7.62736 7.92521 9.53885 10.2831 9.53885C12.6411 9.53885 14.5526 7.62736 14.5526 5.26943C14.5526 2.91149 12.6411 1 10.2831 1ZM10.2831 11.0457C8.39596 11.0457 6.62745 11.4339 5.13832 12.1128C3.65337 12.7896 3 14.345 3 15.7877C2.99995 16.2225 2.9999 16.6958 3.0435 17.0201C3.09152 17.3772 3.20447 17.7546 3.51492 18.065C3.82535 18.3756 4.2028 18.4885 4.5599 18.5365C4.88417 18.5801 5.28278 18.5801 5.71756 18.58H14.8487C15.2835 18.5801 15.6821 18.5801 16.0064 18.5365C16.3635 18.4885 16.7409 18.3756 17.0513 18.065C17.3619 17.7546 17.4748 17.3772 17.5228 17.0201C17.5664 16.6958 17.5664 16.2225 17.5663 15.7877C17.5663 14.345 16.9129 12.7896 15.428 12.1128C13.9389 11.4339 12.1703 11.0457 10.2831 11.0457Z" fill="#FF4B57"/>
</svg>
