<svg width="20" height="20" viewBox="0 0 20 20" fill="none" xmlns="http://www.w3.org/2000/svg">
<path d="M1.66699 5L7.42784 8.26414C9.55166 9.4675 10.449 9.4675 12.5728 8.26414L18.3337 5" stroke="#404040" stroke-linejoin="round"/>
<path d="M1.68013 11.2297C1.73461 13.7844 1.76185 15.0616 2.70446 16.0079C3.64706 16.954 4.95893 16.9869 7.58268 17.0529C9.19974 17.0935 10.8009 17.0935 12.418 17.0529C15.0417 16.9869 16.3536 16.954 17.2962 16.0079C18.2388 15.0616 18.2661 13.7844 18.3205 11.2297C18.3381 10.4083 18.3381 9.59177 18.3205 8.77035C18.2661 6.21574 18.2388 4.93843 17.2962 3.99224C16.3536 3.04605 15.0417 3.01309 12.418 2.94716C10.8009 2.90653 9.19974 2.90653 7.58268 2.94715C4.95893 3.01307 3.64706 3.04603 2.70445 3.99223C1.76184 4.93842 1.73461 6.21573 1.68013 8.77035C1.66261 9.59177 1.66262 10.4083 1.68013 11.2297Z" stroke="#404040" stroke-linejoin="round"/>
</svg>
