<svg width="375" height="199" viewBox="0 0 375 199" fill="none" xmlns="http://www.w3.org/2000/svg">
<path d="M121.121 -37.0951C196.667 105.827 339.994 210.538 441.24 196.786C542.485 183.035 563.323 56.0234 487.777 -86.8987C412.23 -229.821 268.909 -334.538 167.658 -320.786C66.4065 -307.034 45.5683 -180.023 121.115 -37.1007L121.121 -37.0951Z" stroke="url(#paint0_linear_152_224)" stroke-width="1.10724" stroke-miterlimit="10"/>
<path d="M437.698 190.498C537.477 176.906 557.966 51.7277 483.466 -89.0961C408.96 -229.926 267.676 -333.07 167.898 -319.484C68.1189 -305.898 47.624 -180.714 122.13 -39.8905C196.63 100.933 337.919 204.084 437.698 190.498Z" stroke="url(#paint1_linear_152_224)" stroke-width="1.10724" stroke-miterlimit="10"/>
<path d="M434.154 184.201C532.465 170.776 552.606 47.4297 479.146 -91.3015C405.687 -230.033 266.441 -331.616 168.135 -318.196C69.8286 -304.777 49.6769 -181.419 123.137 -42.6937C196.596 96.043 335.848 197.626 434.154 184.201Z" stroke="url(#paint2_linear_152_224)" stroke-width="1.10724" stroke-miterlimit="10"/>
<path d="M430.605 177.913C527.444 164.654 547.235 43.135 474.828 -93.498C402.414 -230.137 265.2 -330.153 168.367 -316.9C71.5333 -303.646 51.7249 -182.116 124.144 -45.4881C196.557 91.156 333.771 191.173 430.605 177.913Z" stroke="url(#paint3_linear_152_224)" stroke-width="1.10724" stroke-miterlimit="10"/>
<path d="M427.063 171.625C522.435 158.532 541.878 38.8393 470.511 -95.6955C399.138 -230.241 263.967 -328.691 168.6 -315.604C73.2395 -302.511 53.7799 -182.818 125.152 -48.278C196.525 86.2623 331.702 184.718 427.063 171.625Z" stroke="url(#paint4_linear_152_224)" stroke-width="1.10724" stroke-miterlimit="10"/>
<path d="M423.518 165.33C517.417 152.403 536.517 34.5377 466.197 -97.8988C395.87 -230.346 262.731 -327.235 168.843 -314.308C74.949 -301.381 55.8325 -183.516 126.159 -51.0737C196.485 81.3739 329.63 178.257 423.518 165.33Z" stroke="url(#paint5_linear_152_224)" stroke-width="1.10724" stroke-miterlimit="10"/>
<path d="M419.978 159.04C512.41 146.279 531.161 30.2408 461.882 -100.098C392.602 -230.453 261.499 -325.775 169.078 -313.014C76.6572 -300.253 57.8896 -184.214 127.169 -53.8704C196.455 76.4846 327.557 171.801 419.978 159.04Z" stroke="url(#paint6_linear_152_224)" stroke-width="1.10724" stroke-miterlimit="10"/>
<path d="M416.427 152.751C507.386 140.151 525.794 25.945 457.561 -102.295C389.322 -230.557 260.256 -324.313 169.314 -311.718C78.3651 -299.123 59.9407 -184.917 128.174 -56.6715C196.413 71.5908 325.484 165.346 416.427 152.751Z" stroke="url(#paint7_linear_152_224)" stroke-width="1.10724" stroke-miterlimit="10"/>
<path d="M412.885 146.461C502.378 134.027 520.437 21.6534 453.244 -104.494C386.051 -230.664 259.024 -322.852 169.548 -310.424C80.0719 -297.989 61.9907 -185.61 129.183 -59.4627C196.382 66.7014 323.409 158.89 412.885 146.461Z" stroke="url(#paint8_linear_152_224)" stroke-width="1.10724" stroke-miterlimit="10"/>
<path d="M409.342 140.167C497.367 127.899 515.078 17.352 448.931 -106.703C382.785 -230.774 257.789 -321.402 169.786 -309.133C81.7826 -296.865 64.0447 -186.319 130.197 -62.2638C196.343 61.8131 321.339 152.435 409.342 140.167Z" stroke="url(#paint9_linear_152_224)" stroke-width="1.10724" stroke-miterlimit="10"/>
<path d="M405.8 133.878C492.353 121.776 509.72 13.0561 444.614 -108.9C379.509 -230.879 256.556 -319.94 170.025 -307.838C83.4946 -295.736 66.0999 -187.016 131.205 -65.0594C196.311 56.9248 319.27 145.98 405.8 133.878Z" stroke="url(#paint10_linear_152_224)" stroke-width="1.10724" stroke-miterlimit="10"/>
<path d="M402.251 127.59C487.337 115.654 504.355 8.76132 440.296 -111.097C376.237 -230.983 255.315 -318.477 170.257 -306.541C85.1995 -294.605 68.1481 -187.712 132.213 -67.8539C196.278 52.0322 317.193 139.526 402.257 127.584L402.251 127.59Z" stroke="url(#paint11_linear_152_224)" stroke-width="1.10724" stroke-miterlimit="10"/>
<path d="M398.705 121.294C482.318 109.519 498.993 4.45837 435.975 -113.302C372.956 -231.09 254.078 -317.017 170.487 -305.247C86.9018 -293.477 70.1936 -188.411 133.212 -70.651C196.23 47.1424 315.114 133.064 398.7 121.294L398.705 121.294Z" stroke="url(#paint12_linear_152_224)" stroke-width="1.10724" stroke-miterlimit="10"/>
<path d="M395.164 115.005C477.309 103.396 493.636 0.167913 431.664 -115.5C369.691 -231.195 252.845 -315.555 170.732 -303.951C88.6138 -292.342 72.2544 -189.109 134.226 -73.4467C196.199 42.2485 313.045 126.609 395.164 115.005Z" stroke="url(#paint13_linear_152_224)" stroke-width="1.10724" stroke-miterlimit="10"/>
<path d="M391.622 108.716C472.295 97.2726 488.278 -4.12812 427.347 -117.697C366.421 -231.3 251.612 -314.094 170.966 -302.656C90.3205 -291.212 74.3098 -189.812 135.236 -76.2424C196.167 37.3601 310.976 120.154 391.622 108.716Z" stroke="url(#paint14_linear_152_224)" stroke-width="1.10724" stroke-miterlimit="10"/>
<path d="M388.071 102.427C467.278 91.1497 482.912 -8.42415 423.027 -119.895C363.142 -231.405 250.37 -312.632 171.197 -301.36C92.0295 -290.083 76.3566 -190.509 136.241 -79.0381C196.126 32.4717 308.898 113.699 388.071 102.421L388.071 102.427Z" stroke="url(#paint15_linear_152_224)" stroke-width="1.10724" stroke-miterlimit="10"/>
<path d="M384.53 96.1323C462.269 85.0212 477.548 -12.7257 418.71 -122.099C359.871 -231.51 249.137 -311.176 171.436 -300.065C93.7358 -288.954 78.4117 -191.207 137.25 -81.8283C196.094 27.5833 306.829 107.249 384.53 96.1379L384.53 96.1323Z" stroke="url(#paint16_linear_152_224)" stroke-width="1.10724" stroke-miterlimit="10"/>
<path d="M380.986 89.8432C457.252 78.8926 472.189 -17.0218 414.397 -124.296C356.605 -231.615 247.902 -309.714 171.674 -298.769C95.4461 -287.819 80.4652 -191.904 138.257 -84.6241C196.055 22.6948 304.758 100.794 380.986 89.8487L380.986 89.8432Z" stroke="url(#paint17_linear_152_224)" stroke-width="1.10724" stroke-miterlimit="10"/>
<path d="M377.441 83.5539C452.241 72.7694 466.829 -21.318 410.077 -126.494C353.326 -231.721 246.666 -308.253 171.91 -297.474C97.1553 -286.689 82.5177 -192.602 139.269 -87.42C196.021 17.8063 302.686 94.3384 377.441 83.5595L377.441 83.5539Z" stroke="url(#paint18_linear_152_224)" stroke-width="1.10724" stroke-miterlimit="10"/>
<path d="M373.894 77.2602C447.221 66.6418 461.465 -25.6132 405.76 -128.702C350.055 -231.831 245.427 -306.802 172.144 -296.183C98.8619 -285.565 84.5674 -193.31 140.273 -90.2204C195.983 12.9132 300.612 87.8786 373.894 77.2602Z" stroke="url(#paint19_linear_152_224)" stroke-width="1.10724" stroke-miterlimit="10"/>
<path d="M370.349 70.972C442.209 60.5197 456.105 -29.9083 401.44 -130.899C346.776 -231.935 244.191 -305.339 172.375 -294.887C100.565 -284.434 86.6142 -194.006 141.278 -93.0152C195.943 8.02013 298.534 81.4244 370.349 70.972Z" stroke="url(#paint20_linear_152_224)" stroke-width="1.10724" stroke-miterlimit="10"/>
<path d="M366.808 64.6816C296.465 74.9678 195.911 3.13031 142.293 -95.8124C88.6755 -194.705 102.278 -283.301 172.621 -293.593C242.963 -303.879 343.512 -232.041 397.13 -133.099C450.748 -34.2057 437.195 54.3898 366.808 64.6816Z" stroke="url(#paint21_linear_152_224)" stroke-width="1.10724" stroke-miterlimit="10"/>
<path d="M254.047 -37.0963C178.501 105.826 35.1742 210.537 -66.0716 196.785C-167.317 183.033 -188.155 56.0222 -112.609 -86.8999C-37.0619 -229.822 106.259 -334.539 207.51 -320.787C308.761 -307.035 329.6 -180.024 254.053 -37.1019L254.047 -37.0963Z" stroke="url(#paint22_linear_152_224)" stroke-width="1.10724" stroke-miterlimit="10"/>
<path d="M-62.5301 190.497C-162.309 176.905 -182.798 51.7265 -108.298 -89.0974C-33.7917 -229.927 107.492 -333.071 207.27 -319.486C307.049 -305.9 327.544 -180.716 253.038 -39.8917C178.538 100.932 37.2486 204.082 -62.5301 190.497Z" stroke="url(#paint23_linear_152_224)" stroke-width="1.10724" stroke-miterlimit="10"/>
<path d="M-58.9879 184.2C-157.299 170.775 -177.44 47.4284 -103.98 -91.3028C-30.5208 -230.034 108.725 -331.617 207.031 -318.198C305.337 -304.778 325.489 -181.421 252.029 -42.6951C178.57 96.0417 39.3181 197.625 -58.9879 184.2Z" stroke="url(#paint24_linear_152_224)" stroke-width="1.10724" stroke-miterlimit="10"/>
<path d="M-55.4368 177.912C-152.276 164.653 -172.068 43.1338 -99.6598 -93.4992C-27.2464 -230.138 109.968 -330.154 206.801 -316.901C303.635 -303.647 323.443 -182.117 251.024 -45.4893C178.611 91.1548 41.3966 191.171 -55.4368 177.912Z" stroke="url(#paint25_linear_152_224)" stroke-width="1.10724" stroke-miterlimit="10"/>
<path d="M-51.8948 171.623C-147.267 158.53 -166.71 38.8381 -95.3428 -95.6967C-23.9702 -230.243 111.201 -328.693 206.568 -315.605C301.928 -302.512 321.388 -182.82 250.016 -48.2793C178.643 86.2611 43.466 184.717 -51.8948 171.623Z" stroke="url(#paint26_linear_152_224)" stroke-width="1.10724" stroke-miterlimit="10"/>
<path d="M-48.3503 165.329C-142.25 152.402 -161.349 34.5365 -91.0287 -97.9C-20.7025 -230.348 112.437 -327.236 206.325 -314.309C300.219 -301.382 319.335 -183.517 249.009 -51.075C178.683 81.3727 45.5378 178.256 -48.3503 165.329Z" stroke="url(#paint27_linear_152_224)" stroke-width="1.10724" stroke-miterlimit="10"/>
<path d="M-44.8083 159.04C-137.24 146.279 -155.991 30.2406 -86.7116 -100.098C-17.4318 -230.453 113.671 -325.775 206.092 -313.014C298.513 -300.253 317.28 -184.214 248.001 -53.8705C178.715 76.4844 47.6128 171.801 -44.8083 159.04Z" stroke="url(#paint28_linear_152_224)" stroke-width="1.10724" stroke-miterlimit="10"/>
<path d="M-41.2588 152.751C-132.218 140.151 -150.626 25.9448 -82.3926 -102.295C-14.1535 -230.558 114.912 -324.313 205.854 -311.718C296.803 -299.123 315.227 -184.917 246.994 -56.6716C178.755 71.5907 49.6841 165.346 -41.2588 152.751Z" stroke="url(#paint29_linear_152_224)" stroke-width="1.10724" stroke-miterlimit="10"/>
<path d="M-37.7154 146.461C-127.208 134.027 -145.267 21.6532 -78.0741 -104.494C-10.8814 -230.664 116.146 -322.852 205.622 -310.424C295.098 -297.989 313.179 -185.61 245.986 -59.4629C178.788 66.7012 51.7605 158.89 -37.7154 146.461Z" stroke="url(#paint30_linear_152_224)" stroke-width="1.10724" stroke-miterlimit="10"/>
<path d="M-34.1742 140.165C-122.2 127.897 -139.91 17.3508 -73.7634 -106.704C-7.61704 -230.775 117.379 -321.403 205.382 -309.135C293.385 -296.866 311.123 -186.32 244.971 -62.265C178.825 61.8119 53.829 152.434 -34.1742 140.165Z" stroke="url(#paint31_linear_152_224)" stroke-width="1.10724" stroke-miterlimit="10"/>
<path d="M-30.6323 133.878C-117.185 121.776 -134.552 13.056 -69.4464 -108.901C-4.34085 -230.879 118.612 -319.94 205.143 -307.838C291.673 -295.736 309.068 -187.016 243.963 -65.0595C178.857 56.9247 55.8983 145.98 -30.6323 133.878Z" stroke="url(#paint32_linear_152_224)" stroke-width="1.10724" stroke-miterlimit="10"/>
<path d="M-27.0834 127.589C-112.169 115.653 -129.187 8.7601 -65.128 -111.098C-1.06879 -230.984 119.853 -318.478 204.911 -306.542C289.968 -294.606 307.02 -187.713 242.955 -67.8551C178.89 52.031 57.9746 139.525 -27.0889 127.583L-27.0834 127.589Z" stroke="url(#paint33_linear_152_224)" stroke-width="1.10724" stroke-miterlimit="10"/>
<path d="M-23.5354 121.293C-107.148 109.517 -123.823 4.45715 -60.8049 -113.303C2.21348 -231.091 121.092 -317.018 204.683 -305.248C288.268 -293.478 304.976 -188.412 241.958 -70.6522C178.94 47.1412 60.0555 133.063 -23.5298 121.293L-23.5354 121.293Z" stroke="url(#paint34_linear_152_224)" stroke-width="1.10724" stroke-miterlimit="10"/>
<path d="M-19.9956 115.004C-102.141 103.394 -118.468 0.166692 -56.4956 -115.501C5.47649 -231.196 122.323 -315.556 204.436 -303.952C286.554 -292.343 302.914 -189.11 240.941 -73.4479C178.969 42.2473 62.1227 126.608 -19.9956 115.004Z" stroke="url(#paint35_linear_152_224)" stroke-width="1.10724" stroke-miterlimit="10"/>
<path d="M-16.4557 108.716C-97.129 97.2725 -113.112 -4.12824 -52.1807 -117.698C8.74504 -231.3 123.554 -314.094 204.2 -302.656C284.846 -291.213 300.856 -189.812 239.93 -76.2425C178.999 37.36 64.1898 120.154 -16.4557 108.716Z" stroke="url(#paint36_linear_152_224)" stroke-width="1.10724" stroke-miterlimit="10"/>
<path d="M-12.9035 102.427C-92.1097 91.1495 -107.744 -8.42427 -47.8589 -119.895C12.026 -231.405 124.798 -312.632 203.971 -301.36C283.138 -290.083 298.811 -190.509 238.926 -79.0382C179.042 32.4716 66.2695 113.698 -12.9035 102.421L-12.9035 102.427Z" stroke="url(#paint37_linear_152_224)" stroke-width="1.10724" stroke-miterlimit="10"/>
<path d="M-9.36158 96.1311C-87.1007 85.02 -102.381 -12.7269 -43.5419 -122.1C15.2967 -231.511 126.031 -311.177 203.732 -300.066C281.432 -288.955 296.756 -191.208 237.918 -81.8295C179.074 27.5821 68.3388 107.248 -9.36158 96.1366L-9.36158 96.1311Z" stroke="url(#paint38_linear_152_224)" stroke-width="1.10724" stroke-miterlimit="10"/>
<path d="M-5.81801 89.8419C-82.0845 78.8913 -97.0211 -17.023 -39.2288 -124.298C18.5634 -231.617 127.266 -309.716 203.494 -298.771C279.722 -287.82 294.703 -191.906 236.91 -84.6254C179.113 22.6936 70.4097 100.793 -5.81801 89.8475L-5.81801 89.8419Z" stroke="url(#paint39_linear_152_224)" stroke-width="1.10724" stroke-miterlimit="10"/>
<path d="M-2.27338 83.5527C-77.0728 72.7682 -91.6606 -21.3192 -34.9092 -126.496C21.8423 -231.722 128.502 -308.254 203.258 -297.475C278.013 -286.691 292.65 -192.603 235.899 -87.4212C179.147 17.805 72.4817 94.3372 -2.27338 83.5582L-2.27338 83.5527Z" stroke="url(#paint40_linear_152_224)" stroke-width="1.10724" stroke-miterlimit="10"/>
<path d="M1.2759 77.2588C-72.0509 66.6404 -86.2954 -25.6145 -30.5903 -128.704C25.1148 -231.832 129.743 -306.803 203.026 -296.184C276.308 -285.566 290.602 -193.311 234.897 -90.2218C179.187 12.9118 74.5584 87.8773 1.2759 77.2588Z" stroke="url(#paint41_linear_152_224)" stroke-width="1.10724" stroke-miterlimit="10"/>
<path d="M4.81883 70.9707C-67.0408 60.5184 -80.9367 -29.9097 -26.2724 -130.901C28.3919 -231.936 130.977 -305.34 202.793 -294.888C274.603 -284.436 288.554 -194.008 233.889 -93.0166C179.225 8.01879 76.6342 81.423 4.81883 70.9707Z" stroke="url(#paint42_linear_152_224)" stroke-width="1.10724" stroke-miterlimit="10"/>
<path d="M8.36004 64.6813C78.7028 74.9676 179.257 3.13007 232.875 -95.8126C286.492 -194.705 272.89 -283.301 202.547 -293.593C132.205 -303.879 31.6564 -232.041 -21.9616 -133.099C-75.5795 -34.206 -62.027 54.3896 8.36004 64.6813Z" stroke="url(#paint43_linear_152_224)" stroke-width="1.10724" stroke-miterlimit="10"/>
<defs>
<linearGradient id="paint0_linear_152_224" x1="304.446" y1="198" x2="304.446" y2="-321.999" gradientUnits="userSpaceOnUse">
<stop stop-color="#58004C"/>
<stop offset="1" stop-color="#FCCCFF"/>
</linearGradient>
<linearGradient id="paint1_linear_152_224" x1="302.797" y1="191.7" x2="302.797" y2="-320.686" gradientUnits="userSpaceOnUse">
<stop stop-color="#58004C"/>
<stop offset="1" stop-color="#FCCCFF"/>
</linearGradient>
<linearGradient id="paint2_linear_152_224" x1="301.143" y1="185.393" x2="301.143" y2="-319.387" gradientUnits="userSpaceOnUse">
<stop stop-color="#58004C"/>
<stop offset="1" stop-color="#FCCCFF"/>
</linearGradient>
<linearGradient id="paint3_linear_152_224" x1="299.484" y1="179.093" x2="299.484" y2="-318.078" gradientUnits="userSpaceOnUse">
<stop stop-color="#58004C"/>
<stop offset="1" stop-color="#FCCCFF"/>
</linearGradient>
<linearGradient id="paint4_linear_152_224" x1="297.832" y1="172.793" x2="297.832" y2="-316.771" gradientUnits="userSpaceOnUse">
<stop stop-color="#58004C"/>
<stop offset="1" stop-color="#FCCCFF"/>
</linearGradient>
<linearGradient id="paint5_linear_152_224" x1="296.178" y1="166.487" x2="296.178" y2="-315.465" gradientUnits="userSpaceOnUse">
<stop stop-color="#58004C"/>
<stop offset="1" stop-color="#FCCCFF"/>
</linearGradient>
<linearGradient id="paint6_linear_152_224" x1="294.528" y1="160.186" x2="294.528" y2="-314.159" gradientUnits="userSpaceOnUse">
<stop stop-color="#58004C"/>
<stop offset="1" stop-color="#FCCCFF"/>
</linearGradient>
<linearGradient id="paint7_linear_152_224" x1="292.87" y1="153.885" x2="292.87" y2="-312.852" gradientUnits="userSpaceOnUse">
<stop stop-color="#58004C"/>
<stop offset="1" stop-color="#FCCCFF"/>
</linearGradient>
<linearGradient id="paint8_linear_152_224" x1="291.217" y1="147.584" x2="291.217" y2="-311.546" gradientUnits="userSpaceOnUse">
<stop stop-color="#58004C"/>
<stop offset="1" stop-color="#FCCCFF"/>
</linearGradient>
<linearGradient id="paint9_linear_152_224" x1="289.566" y1="141.279" x2="289.566" y2="-310.246" gradientUnits="userSpaceOnUse">
<stop stop-color="#58004C"/>
<stop offset="1" stop-color="#FCCCFF"/>
</linearGradient>
<linearGradient id="paint10_linear_152_224" x1="287.914" y1="134.979" x2="287.914" y2="-308.939" gradientUnits="userSpaceOnUse">
<stop stop-color="#58004C"/>
<stop offset="1" stop-color="#FCCCFF"/>
</linearGradient>
<linearGradient id="paint11_linear_152_224" x1="286.257" y1="128.675" x2="286.257" y2="-307.63" gradientUnits="userSpaceOnUse">
<stop stop-color="#58004C"/>
<stop offset="1" stop-color="#FCCCFF"/>
</linearGradient>
<linearGradient id="paint12_linear_152_224" x1="284.599" y1="122.372" x2="284.598" y2="-306.325" gradientUnits="userSpaceOnUse">
<stop stop-color="#58004C"/>
<stop offset="1" stop-color="#FCCCFF"/>
</linearGradient>
<linearGradient id="paint13_linear_152_224" x1="282.95" y1="116.072" x2="282.95" y2="-305.018" gradientUnits="userSpaceOnUse">
<stop stop-color="#58004C"/>
<stop offset="1" stop-color="#FCCCFF"/>
</linearGradient>
<linearGradient id="paint14_linear_152_224" x1="281.297" y1="109.772" x2="281.297" y2="-303.712" gradientUnits="userSpaceOnUse">
<stop stop-color="#58004C"/>
<stop offset="1" stop-color="#FCCCFF"/>
</linearGradient>
<linearGradient id="paint15_linear_152_224" x1="279.64" y1="103.467" x2="279.64" y2="-302.405" gradientUnits="userSpaceOnUse">
<stop stop-color="#58004C"/>
<stop offset="1" stop-color="#FCCCFF"/>
</linearGradient>
<linearGradient id="paint16_linear_152_224" x1="277.987" y1="97.1723" x2="277.987" y2="-301.099" gradientUnits="userSpaceOnUse">
<stop stop-color="#58004C"/>
<stop offset="1" stop-color="#FCCCFF"/>
</linearGradient>
<linearGradient id="paint17_linear_152_224" x1="276.334" y1="90.872" x2="276.334" y2="-299.793" gradientUnits="userSpaceOnUse">
<stop stop-color="#58004C"/>
<stop offset="1" stop-color="#FCCCFF"/>
</linearGradient>
<linearGradient id="paint18_linear_152_224" x1="274.681" y1="84.5717" x2="274.681" y2="-298.486" gradientUnits="userSpaceOnUse">
<stop stop-color="#58004C"/>
<stop offset="1" stop-color="#FCCCFF"/>
</linearGradient>
<linearGradient id="paint19_linear_152_224" x1="273.024" y1="78.2624" x2="273.024" y2="-297.185" gradientUnits="userSpaceOnUse">
<stop stop-color="#58004C"/>
<stop offset="1" stop-color="#FCCCFF"/>
</linearGradient>
<linearGradient id="paint20_linear_152_224" x1="271.368" y1="71.9632" x2="271.368" y2="-295.878" gradientUnits="userSpaceOnUse">
<stop stop-color="#58004C"/>
<stop offset="1" stop-color="#FCCCFF"/>
</linearGradient>
<linearGradient id="paint21_linear_152_224" x1="269.719" y1="65.6618" x2="269.719" y2="-294.573" gradientUnits="userSpaceOnUse">
<stop stop-color="#58004C"/>
<stop offset="1" stop-color="#FCCCFF"/>
</linearGradient>
<linearGradient id="paint22_linear_152_224" x1="70.7219" y1="197.999" x2="70.722" y2="-322" gradientUnits="userSpaceOnUse">
<stop stop-color="#58004C"/>
<stop offset="1" stop-color="#FCCCFF"/>
</linearGradient>
<linearGradient id="paint23_linear_152_224" x1="72.3713" y1="191.698" x2="72.3714" y2="-320.687" gradientUnits="userSpaceOnUse">
<stop stop-color="#58004C"/>
<stop offset="1" stop-color="#FCCCFF"/>
</linearGradient>
<linearGradient id="paint24_linear_152_224" x1="74.0226" y1="185.391" x2="74.0227" y2="-319.388" gradientUnits="userSpaceOnUse">
<stop stop-color="#58004C"/>
<stop offset="1" stop-color="#FCCCFF"/>
</linearGradient>
<linearGradient id="paint25_linear_152_224" x1="75.6838" y1="179.092" x2="75.6839" y2="-318.08" gradientUnits="userSpaceOnUse">
<stop stop-color="#58004C"/>
<stop offset="1" stop-color="#FCCCFF"/>
</linearGradient>
<linearGradient id="paint26_linear_152_224" x1="77.336" y1="172.792" x2="77.336" y2="-316.772" gradientUnits="userSpaceOnUse">
<stop stop-color="#58004C"/>
<stop offset="1" stop-color="#FCCCFF"/>
</linearGradient>
<linearGradient id="paint27_linear_152_224" x1="78.9896" y1="166.486" x2="78.9897" y2="-315.466" gradientUnits="userSpaceOnUse">
<stop stop-color="#58004C"/>
<stop offset="1" stop-color="#FCCCFF"/>
</linearGradient>
<linearGradient id="paint28_linear_152_224" x1="80.6418" y1="160.186" x2="80.6419" y2="-314.159" gradientUnits="userSpaceOnUse">
<stop stop-color="#58004C"/>
<stop offset="1" stop-color="#FCCCFF"/>
</linearGradient>
<linearGradient id="paint29_linear_152_224" x1="82.2979" y1="153.885" x2="82.298" y2="-312.852" gradientUnits="userSpaceOnUse">
<stop stop-color="#58004C"/>
<stop offset="1" stop-color="#FCCCFF"/>
</linearGradient>
<linearGradient id="paint30_linear_152_224" x1="83.9527" y1="147.584" x2="83.9528" y2="-311.546" gradientUnits="userSpaceOnUse">
<stop stop-color="#58004C"/>
<stop offset="1" stop-color="#FCCCFF"/>
</linearGradient>
<linearGradient id="paint31_linear_152_224" x1="85.6019" y1="141.278" x2="85.6019" y2="-310.247" gradientUnits="userSpaceOnUse">
<stop stop-color="#58004C"/>
<stop offset="1" stop-color="#FCCCFF"/>
</linearGradient>
<linearGradient id="paint32_linear_152_224" x1="87.2537" y1="134.979" x2="87.2538" y2="-308.939" gradientUnits="userSpaceOnUse">
<stop stop-color="#58004C"/>
<stop offset="1" stop-color="#FCCCFF"/>
</linearGradient>
<linearGradient id="paint33_linear_152_224" x1="88.9106" y1="128.674" x2="88.9107" y2="-307.632" gradientUnits="userSpaceOnUse">
<stop stop-color="#58004C"/>
<stop offset="1" stop-color="#FCCCFF"/>
</linearGradient>
<linearGradient id="paint34_linear_152_224" x1="90.5714" y1="122.371" x2="90.5714" y2="-306.326" gradientUnits="userSpaceOnUse">
<stop stop-color="#58004C"/>
<stop offset="1" stop-color="#FCCCFF"/>
</linearGradient>
<linearGradient id="paint35_linear_152_224" x1="92.2178" y1="116.071" x2="92.2179" y2="-305.02" gradientUnits="userSpaceOnUse">
<stop stop-color="#58004C"/>
<stop offset="1" stop-color="#FCCCFF"/>
</linearGradient>
<linearGradient id="paint36_linear_152_224" x1="93.8685" y1="109.772" x2="93.8686" y2="-303.712" gradientUnits="userSpaceOnUse">
<stop stop-color="#58004C"/>
<stop offset="1" stop-color="#FCCCFF"/>
</linearGradient>
<linearGradient id="paint37_linear_152_224" x1="95.528" y1="103.467" x2="95.5281" y2="-302.405" gradientUnits="userSpaceOnUse">
<stop stop-color="#58004C"/>
<stop offset="1" stop-color="#FCCCFF"/>
</linearGradient>
<linearGradient id="paint38_linear_152_224" x1="97.1811" y1="97.1711" x2="97.1811" y2="-301.1" gradientUnits="userSpaceOnUse">
<stop stop-color="#58004C"/>
<stop offset="1" stop-color="#FCCCFF"/>
</linearGradient>
<linearGradient id="paint39_linear_152_224" x1="98.834" y1="90.8708" x2="98.8341" y2="-299.794" gradientUnits="userSpaceOnUse">
<stop stop-color="#58004C"/>
<stop offset="1" stop-color="#FCCCFF"/>
</linearGradient>
<linearGradient id="paint40_linear_152_224" x1="100.487" y1="84.5705" x2="100.487" y2="-298.487" gradientUnits="userSpaceOnUse">
<stop stop-color="#58004C"/>
<stop offset="1" stop-color="#FCCCFF"/>
</linearGradient>
<linearGradient id="paint41_linear_152_224" x1="102.146" y1="78.2611" x2="102.146" y2="-297.187" gradientUnits="userSpaceOnUse">
<stop stop-color="#58004C"/>
<stop offset="1" stop-color="#FCCCFF"/>
</linearGradient>
<linearGradient id="paint42_linear_152_224" x1="103.8" y1="71.9619" x2="103.8" y2="-295.879" gradientUnits="userSpaceOnUse">
<stop stop-color="#58004C"/>
<stop offset="1" stop-color="#FCCCFF"/>
</linearGradient>
<linearGradient id="paint43_linear_152_224" x1="105.449" y1="65.6616" x2="105.449" y2="-294.573" gradientUnits="userSpaceOnUse">
<stop stop-color="#58004C"/>
<stop offset="1" stop-color="#FCCCFF"/>
</linearGradient>
</defs>
</svg>
